Coordinates
version=1
nRows=24
nColumns=24
inDegrees=yes

Units are S.I. units (second, meters, Newtons, ...)
Angles are in degrees.

endheader
time	pelvis_tilt	pelvis_list	pelvis_rotation	pelvis_tx	pelvis_ty	pelvis_tz	hip_flexion_r	hip_adduction_r	hip_rotation_r	knee_angle_r	ankle_angle_r	subtalar_angle_r	mtp_angle_r	hip_flexion_l	hip_adduction_l	hip_rotation_l	knee_angle_l	ankle_angle_l	subtalar_angle_l	mtp_angle_l	lumbar_extension	lumbar_bending	lumbar_rotation
      2.54500000	     22.49795228	     -0.88225093	      0.63593383	     -0.65641917	      1.01640447	      0.01757263	    -38.01696223	      2.49269069	    -10.22267035	     -6.12557172	     15.82392261	      1.15247346	     14.09257867	     -6.29995831	     -1.35199639	    -10.35627297	      1.17014548	     -1.40922887	      4.94568247	     25.42697357	    -39.43497911	      0.73098443	      3.85399813
      2.55000000	     22.57131742	     -0.81229258	      0.49478762	     -0.65065041	      1.01593770	      0.01726268	    -38.21021300	      2.23143399	    -10.34204418	     -6.56953908	     15.91821185	      1.64700816	     13.88920325	     -6.32003100	     -1.17157837	    -10.38785560	      0.72792281	     -1.84423254	      4.75363311	     25.58248940	    -39.49027635	      0.57000460	      3.84489564
      2.55500000	     22.61501149	     -0.76190974	      0.31823102	     -0.64489415	      1.01548842	      0.01704662	    -38.36287263	      1.97278722	    -10.28111649	     -7.01427643	     15.97393365	      1.93925879	     13.91251759	     -6.28409624	     -1.02437607	    -10.41092703	      0.18870462	     -2.29635259	      4.47676965	     25.60135739	    -39.51674788	      0.39677263	      3.87324018
      2.56000000	     22.68045155	     -0.67584402	      0.18822875	     -0.63908087	      1.01509274	      0.01672813	    -38.52132516	      1.69917681	    -10.39156051	     -7.49686303	     15.99132058	      2.35640734	     14.06440799	     -6.25217664	     -0.84911233	    -10.32519226	     -0.42143501	     -2.81334873	      4.05645195	     25.61023073	    -39.55941309	      0.21939337	      3.85905073
      2.56500000	     22.73986661	     -0.57709018	      0.08153468	     -0.63326806	      1.01473097	      0.01637191	    -38.64143385	      1.42104115	    -10.53328850	     -8.03726250	     15.92969664	      2.76436240	     14.39761042	     -6.19789288	     -0.67147777	    -10.13335353	     -1.08730411	     -3.34443975	      3.53658654	     25.60440198	    -39.59937294	      0.04205955	      3.79382330
      2.57000000	     22.77737093	     -0.47844459	     -0.02805285	     -0.62744601	      1.01438753	      0.01602141	    -38.73093303	      1.14301189	    -10.60368740	     -8.58263603	     15.88111561	      3.10029278	     14.85222075	     -6.09383676	     -0.50199406	     -9.91347891	     -1.82997265	     -3.87970924	      2.91031044	     25.54226254	    -39.61506524	     -0.13948135	      3.75264317
      2.57500000	     22.81446633	     -0.34614920	     -0.09035504	     -0.62158424	      1.01409915	      0.01558294	    -38.78367535	      0.85296469	    -10.78587952	     -9.19936367	     15.68002528	      3.44664055	     15.68937153	     -5.98183312	     -0.30419261	     -9.55367184	     -2.60390532	     -4.36951449	      2.19989923	     25.41707356	    -39.62664535	     -0.32483632	      3.62148792
      2.58000000	     22.84134553	     -0.21615372	     -0.20922232	     -0.61570850	      1.01384797	      0.01525716	    -38.81238589	      0.53445157	    -10.85386706	     -9.80953353	     15.29031832	      3.60131312	     19.19214036	     -5.83424481	     -0.11787941	     -9.34598348	     -3.46206657	     -4.74314857	      1.64255637	     24.90154690	    -39.62955548	     -0.54842989	      3.56085698
      2.58500000	     22.87249158	     -0.09850633	     -0.25395697	     -0.60989983	      1.01366463	      0.01480908	    -38.82306734	      0.27712954	    -10.88453783	    -10.46602813	     15.05313023	      3.69455504	     19.46501987	     -5.67627186	      0.05416157	     -8.88563426	     -4.33988416	     -5.12684861	      0.75216126	     24.68336955	    -39.64364916	     -0.71553418	      3.45688650
      2.59000000	     22.89296691	      0.06350484	     -0.30114034	     -0.60402156	      1.01351726	      0.01434624	    -38.79461886	     -0.03288582	    -11.00363535	    -11.16495547	     14.58237375	      3.76737628	     22.44375653	     -5.48816147	      0.26933160	     -8.46590861	     -5.29033057	     -5.26242533	      0.02930841	     23.36027019	    -39.64222003	     -0.92586474	      3.31852806
      2.59500000	     22.87091911	      0.22461208	     -0.28656079	     -0.59816821	      1.01335505	      0.01376572	    -38.68066018	     -0.31453456	    -11.16171173	    -11.95618253	     14.31477330	      4.00851422	     22.80109906	     -5.22199240	      0.48147504	     -7.90794932	     -6.30024720	     -5.38532129	     -0.85594091	     23.05027993	    -39.59974601	     -1.09596555	      3.13606013
      2.60000000	     22.90150235	      0.37878263	     -0.32624627	     -0.59232165	      1.01333989	      0.01323739	    -38.57622419	     -0.63182791	    -11.27761225	    -12.79860970	     13.75828653	      4.07022035	     25.86972089	     -5.02413641	      0.69390020	     -7.42423885	     -7.32862579	     -5.24025071	     -1.58232549	     21.19341387	    -39.61497824	     -1.29238289	      3.03115012
      2.60500000	     22.84068916	      0.53541711	     -0.29725838	     -0.58650774	      1.01324949	      0.01262406	    -38.33640349	     -0.90678065	    -11.37282172	    -13.72481145	     13.40474175	      4.12498038	     26.09431698	     -4.68655063	      0.90518059	     -6.83972919	     -8.42052133	     -5.19616716	     -2.45444084	     20.94671749	    -39.54044160	     -1.45153968	      2.86014848
      2.61000000	     22.85100550	      0.75785360	     -0.29932040	     -0.58055589	      1.01328902	      0.01197513	    -38.14640112	     -1.28964774	    -11.62442895	    -14.69363786	     12.71834637	      4.26751487	     29.62327218	     -4.46287210	      1.20129081	     -6.28572360	     -9.49829189	     -4.78845742	     -3.10223227	     18.60105778	    -39.52622301	     -1.68331809	      2.67908661
      2.61500000	     22.78609765	      0.87189047	     -0.19577383	     -0.57477744	      1.01327404	      0.01124080	    -37.83588530	     -1.49084570	    -11.70638314	    -15.71946150	     12.20158471	      4.20906997	     29.85754729	     -4.09171916	      1.37130411	     -5.59569002	    -10.67897272	     -4.44930828	     -3.85964126	     18.34981587	    -39.45339611	     -1.75751445	      2.49000299
      2.62000000	     22.76616975	      1.08314747	     -0.18031661	     -0.56881795	      1.01337268	      0.01054333	    -37.53235270	     -1.86921454	    -11.92119829	    -16.81407765	     11.34718538	      4.21899593	     33.85662621	     -3.83568870	      1.66745729	     -5.03141705	    -11.79137913	     -3.81128329	     -4.39452213	     15.47260425	    -39.40890999	     -1.96868658	      2.32133183
      2.62500000	     22.72635889	      1.23243908	     -0.06084951	     -0.56293865	      1.01344990	      0.00974768	    -37.18514804	     -2.11899414	    -12.09234766	    -17.94141594	     10.53542937	      4.09969616	     35.94316548	     -3.52340795	      1.88871786	     -4.36358845	    -12.97001223	     -3.05167663	     -4.82121667	     13.15816469	    -39.35336695	     -2.06215951	      2.10159342
      2.63000000	     22.71079206	      1.40418880	     -0.04491268	     -0.55701377	      1.01359433	      0.00898878	    -36.78911932	     -2.48522973	    -12.24839001	    -19.20044646	      9.81064326	      4.17060995	     37.73573262	     -3.30020348	      2.16460084	     -3.79691853	    -14.04470487	     -2.42371278	     -5.43033027	     11.67505078	    -39.31638681	     -2.22769846	      1.97594344
      2.63500000	     22.63156912	      1.50276539	      0.04664922	     -0.55115614	      1.01369069	      0.00818006	    -36.28294858	     -2.73498860	    -12.34816413	    -20.51520330	      9.02489163	      4.13028539	     37.99562478	     -2.99051446	      2.35172949	     -3.20109484	    -15.14508824	     -1.85447538	     -5.92786950	     11.51752882	    -39.22020317	     -2.28615658	      1.84116607
      2.64000000	     22.61305396	      1.65502567	      0.06372799	     -0.54516172	      1.01389122	      0.00741570	    -35.82135877	     -3.09947995	    -12.48232546	    -21.83078182	      7.89081417	      3.93836540	     42.09701416	     -2.82841039	      2.61220800	     -2.71342849	    -16.13179213	     -1.04258312	     -6.29095162	      9.29450597	    -39.17030755	     -2.43076083	      1.72199162
      2.64500000	     22.55885456	      1.77332375	      0.12266426	     -0.53925084	      1.01404252	      0.00659059	    -35.25950040	     -3.41987098	    -12.60865198	    -23.26993529	      7.01518589	      3.90474825	     42.30152003	     -2.63926995	      2.83806051	     -2.20488845	    -17.07823824	     -0.45553706	     -6.71584967	      9.14062250	    -39.09131491	     -2.51763172	      1.59916677
      2.65000000	     22.56360285	      1.91015631	      0.11450496	     -0.53325175	      1.01430256	      0.00583147	    -34.74429624	     -3.80743158	    -12.70783885	    -24.68266905	      5.79107855	      3.66064636	     45.92143191	     -2.59386529	      3.08960482	     -1.81834254	    -17.90646856	      0.37105009	     -6.99066838	      7.06497205	    -39.06126808	     -2.65540359	      1.50929812
      2.65500000	     22.51712580	      2.01433857	      0.12315673	     -0.52733527	      1.01449475	      0.00506090	    -34.10660127	     -4.16446851	    -12.77750539	    -26.21695009	      4.80311288	      3.53015855	     46.06816152	     -2.51530326	      3.30248758	     -1.45721339	    -18.67348187	      0.96080606	     -7.28966024	      6.95931408	    -38.98285360	     -2.75285932	      1.43752304
      2.66000000	     22.51072192	      2.12418982	      0.10229807	     -0.52138485	      1.01475701	      0.00429929	    -33.49969490	     -4.55242286	    -12.82982538	    -27.71518342	      3.53817306	      3.20647888	     49.12897224	     -2.54735613	      3.52595602	     -1.16173542	    -19.33334568	      1.74982093	     -7.50144918	      5.27945450	    -38.94053379	     -2.86539095	      1.36593361
